<?xml version="1.0" standalone="no"?>
<!DOCTYPE svg PUBLIC "-//W3C//DTD SVG 20010904//EN"
 "http://www.w3.org/TR/2001/REC-SVG-20010904/DTD/svg10.dtd">
<svg version="1.0" xmlns="http://www.w3.org/2000/svg"
 width="184.000000pt" height="184.000000pt" viewBox="0 0 184.000000 184.000000"
 preserveAspectRatio="xMidYMid meet">
<metadata>
Created by potrace 1.11, written by Peter Selinger 2001-2013
</metadata>
<g transform="translate(0.000000,184.000000) scale(0.100000,-0.100000)"
fill="#000000" stroke="none">
<path d="M1578 1536 c-79 -33 -225 -121 -339 -204 l-97 -70 -40 41 c-33 33
-48 41 -90 45 -29 2 -59 -1 -73 -8 -58 -31 -761 -595 -775 -622 -21 -40 -20
-102 1 -134 52 -80 281 -357 306 -369 42 -22 101 -19 141 9 46 31 695 541 731
574 40 38 53 94 32 148 -9 23 -23 48 -31 54 -7 7 -14 16 -14 20 0 4 30 32 68
63 96 78 263 247 306 310 94 136 31 208 -126 143z m85 -77 c-27 -47 -194 -220
-293 -304 l-86 -73 -48 59 c-26 33 -45 63 -42 68 9 14 269 187 336 223 67 36
115 56 138 57 10 1 8 -7 -5 -30z m-611 -206 c66 -70 268 -336 268 -353 0 -10
-10 -30 -22 -44 -13 -14 -183 -152 -378 -306 -297 -234 -360 -279 -388 -280
-30 0 -42 12 -167 170 -75 93 -139 181 -144 193 -6 16 -5 32 2 47 7 12 176
152 377 311 399 315 401 316 452 262z"/>
<path d="M775 1028 c-28 -16 -203 -154 -242 -191 -54 -50 -47 -77 48 -198 89
-114 114 -135 151 -126 30 8 279 201 295 231 21 37 15 52 -63 153 -112 145
-136 162 -189 131z m149 -130 c48 -61 85 -119 84 -127 -5 -25 -270 -232 -293
-229 -28 4 -185 202 -185 233 0 20 26 46 133 130 73 58 141 105 153 105 15 0
46 -32 108 -112z"/>
</g>
</svg>
